<svg width="174" height="32" viewBox="0 0 174 32" fill="none" xmlns="http://www.w3.org/2000/svg">
<path d="M21.5568 9.875H16.5795C16.4886 9.23106 16.303 8.65909 16.0227 8.15909C15.7424 7.65151 15.3826 7.2197 14.9432 6.86364C14.5038 6.50757 13.9962 6.23485 13.4205 6.04545C12.8523 5.85606 12.2348 5.76136 11.5682 5.76136C10.3636 5.76136 9.31439 6.06061 8.42045 6.65909C7.52652 7.25 6.83333 8.11364 6.34091 9.25C5.84849 10.3788 5.60227 11.75 5.60227 13.3636C5.60227 15.0227 5.84849 16.4167 6.34091 17.5455C6.84091 18.6742 7.53788 19.5265 8.43182 20.1023C9.32576 20.678 10.3598 20.9659 11.5341 20.9659C12.1932 20.9659 12.803 20.8788 13.3636 20.7045C13.9318 20.5303 14.4356 20.2765 14.875 19.9432C15.3144 19.6023 15.678 19.1894 15.9659 18.7045C16.2614 18.2197 16.4659 17.6667 16.5795 17.0455L21.5568 17.0682C21.428 18.1364 21.1061 19.1667 20.5909 20.1591C20.0833 21.1439 19.3977 22.0265 18.5341 22.8068C17.678 23.5795 16.6553 24.1932 15.4659 24.6477C14.2841 25.0947 12.947 25.3182 11.4545 25.3182C9.37879 25.3182 7.52273 24.8485 5.88636 23.9091C4.25758 22.9697 2.9697 21.6098 2.02273 19.8295C1.08333 18.0492 0.613636 15.8939 0.613636 13.3636C0.613636 10.8258 1.09091 8.66667 2.04545 6.88636C3 5.10606 4.29545 3.75 5.93182 2.81818C7.56818 1.87879 9.40909 1.40909 11.4545 1.40909C12.803 1.40909 14.053 1.59848 15.2045 1.97727C16.3636 2.35606 17.3902 2.90909 18.2841 3.63636C19.178 4.35606 19.9053 5.23864 20.4659 6.28409C21.0341 7.32954 21.3977 8.52651 21.5568 9.875ZM29.9716 25.3295C28.858 25.3295 27.8655 25.1364 26.9943 24.75C26.1231 24.3561 25.4337 23.7765 24.9261 23.0114C24.4261 22.2386 24.1761 21.2765 24.1761 20.125C24.1761 19.1553 24.3542 18.3409 24.7102 17.6818C25.0663 17.0227 25.5511 16.4924 26.1648 16.0909C26.7784 15.6894 27.4754 15.3864 28.2557 15.1818C29.0436 14.9773 29.8693 14.8333 30.733 14.75C31.7481 14.6439 32.5663 14.5455 33.1875 14.4545C33.8087 14.3561 34.2595 14.2121 34.5398 14.0227C34.8201 13.8333 34.9602 13.553 34.9602 13.1818V13.1136C34.9602 12.3939 34.733 11.8371 34.2784 11.4432C33.8314 11.0492 33.1951 10.8523 32.3693 10.8523C31.4981 10.8523 30.8049 11.0455 30.2898 11.4318C29.7746 11.8106 29.4337 12.2879 29.267 12.8636L24.7898 12.5C25.017 11.4394 25.464 10.5227 26.1307 9.75C26.7973 8.9697 27.6572 8.37121 28.7102 7.95454C29.7708 7.5303 30.9981 7.31818 32.392 7.31818C33.3617 7.31818 34.2898 7.43182 35.1761 7.65909C36.0701 7.88636 36.8617 8.23864 37.5511 8.71591C38.2481 9.19318 38.7973 9.80682 39.1989 10.5568C39.6004 11.2992 39.8011 12.1894 39.8011 13.2273V25H35.2102V22.5795H35.0739C34.7936 23.125 34.4186 23.6061 33.9489 24.0227C33.4792 24.4318 32.9148 24.7538 32.2557 24.9886C31.5966 25.2159 30.8352 25.3295 29.9716 25.3295ZM31.358 21.9886C32.0701 21.9886 32.6989 21.8485 33.2443 21.5682C33.7898 21.2803 34.2178 20.8939 34.5284 20.4091C34.839 19.9242 34.9943 19.375 34.9943 18.7614V16.9091C34.8428 17.0076 34.6345 17.0985 34.3693 17.1818C34.1117 17.2576 33.8201 17.3295 33.4943 17.3977C33.1686 17.4583 32.8428 17.5152 32.517 17.5682C32.1913 17.6136 31.8958 17.6553 31.6307 17.6932C31.0625 17.7765 30.5663 17.9091 30.142 18.0909C29.7178 18.2727 29.3883 18.5189 29.1534 18.8295C28.9186 19.1326 28.8011 19.5114 28.8011 19.9659C28.8011 20.625 29.0398 21.1288 29.517 21.4773C30.0019 21.8182 30.6155 21.9886 31.358 21.9886ZM52.8409 7.54545V11.1818H42.3295V7.54545H52.8409ZM44.7159 3.36364H49.5568V19.6364C49.5568 20.0833 49.625 20.4318 49.7614 20.6818C49.8977 20.9242 50.0871 21.0947 50.3295 21.1932C50.5795 21.2917 50.8674 21.3409 51.1932 21.3409C51.4205 21.3409 51.6477 21.322 51.875 21.2841C52.1023 21.2386 52.2765 21.2045 52.3977 21.1818L53.1591 24.7841C52.9167 24.8598 52.5758 24.947 52.1364 25.0455C51.697 25.1515 51.1629 25.2159 50.5341 25.2386C49.3674 25.2841 48.3447 25.1288 47.4659 24.7727C46.5947 24.4167 45.9167 23.8636 45.4318 23.1136C44.947 22.3636 44.7083 21.4167 44.7159 20.2727V3.36364ZM63.7614 25.3409C61.9659 25.3409 60.4205 24.9773 59.125 24.25C57.8371 23.5152 56.8447 22.4773 56.1477 21.1364C55.4508 19.7879 55.1023 18.1932 55.1023 16.3523C55.1023 14.5568 55.4508 12.9811 56.1477 11.625C56.8447 10.2689 57.8258 9.21212 59.0909 8.45454C60.3636 7.69697 61.8561 7.31818 63.5682 7.31818C64.7197 7.31818 65.7917 7.50379 66.7841 7.875C67.7841 8.23864 68.6553 8.78788 69.3977 9.52273C70.1477 10.2576 70.7311 11.1818 71.1477 12.2955C71.5644 13.4015 71.7727 14.697 71.7727 16.1818V17.5114H57.0341V14.5114H67.2159C67.2159 13.8144 67.0644 13.197 66.7614 12.6591C66.4583 12.1212 66.0379 11.7008 65.5 11.3977C64.9697 11.0871 64.3523 10.9318 63.6477 10.9318C62.9129 10.9318 62.2614 11.1023 61.6932 11.4432C61.1326 11.7765 60.6932 12.2273 60.375 12.7955C60.0568 13.3561 59.8939 13.9811 59.8864 14.6705V17.5227C59.8864 18.3864 60.0455 19.1326 60.3636 19.7614C60.6894 20.3902 61.1477 20.875 61.7386 21.2159C62.3295 21.5568 63.0303 21.7273 63.8409 21.7273C64.3788 21.7273 64.8712 21.6515 65.3182 21.5C65.7652 21.3485 66.1477 21.1212 66.4659 20.8182C66.7841 20.5152 67.0265 20.1439 67.1932 19.7045L71.6705 20C71.4432 21.0758 70.9773 22.0152 70.2727 22.8182C69.5758 23.6136 68.6742 24.2348 67.5682 24.6818C66.4697 25.1212 65.2008 25.3409 63.7614 25.3409ZM74.9318 25V7.54545H79.625V10.5909H79.8068C80.125 9.50758 80.6591 8.68939 81.4091 8.13636C82.1591 7.57576 83.0227 7.29545 84 7.29545C84.2424 7.29545 84.5038 7.31061 84.7841 7.34091C85.0644 7.37121 85.3106 7.41288 85.5227 7.46591V11.7614C85.2955 11.6932 84.9811 11.6326 84.5795 11.5795C84.178 11.5265 83.8106 11.5 83.4773 11.5C82.7652 11.5 82.1288 11.6553 81.5682 11.9659C81.0152 12.2689 80.5758 12.6932 80.25 13.2386C79.9318 13.7841 79.7727 14.4129 79.7727 15.125V25H74.9318ZM88.0256 25V7.54545H92.8665V25H88.0256ZM90.4574 5.29545C89.7377 5.29545 89.1203 5.05682 88.6051 4.57954C88.0975 4.0947 87.8438 3.51515 87.8438 2.84091C87.8438 2.17424 88.0975 1.60227 88.6051 1.125C89.1203 0.640151 89.7377 0.397726 90.4574 0.397726C91.1771 0.397726 91.7907 0.640151 92.2983 1.125C92.8134 1.60227 93.071 2.17424 93.071 2.84091C93.071 3.51515 92.8134 4.0947 92.2983 4.57954C91.7907 5.05682 91.1771 5.29545 90.4574 5.29545ZM101.585 14.9091V25H96.7443V7.54545H101.358V10.625H101.562C101.949 9.60985 102.597 8.80682 103.506 8.21591C104.415 7.61742 105.517 7.31818 106.812 7.31818C108.025 7.31818 109.081 7.58333 109.983 8.11364C110.884 8.64394 111.585 9.40151 112.085 10.3864C112.585 11.3636 112.835 12.5303 112.835 13.8864V25H107.994V14.75C108.002 13.6818 107.729 12.8485 107.176 12.25C106.623 11.6439 105.862 11.3409 104.892 11.3409C104.241 11.3409 103.665 11.4811 103.165 11.7614C102.672 12.0417 102.286 12.4508 102.006 12.9886C101.733 13.5189 101.593 14.1591 101.585 14.9091ZM124.514 31.9091C122.946 31.9091 121.601 31.6932 120.48 31.2614C119.366 30.8371 118.48 30.2576 117.821 29.5227C117.162 28.7879 116.734 27.9621 116.537 27.0455L121.014 26.4432C121.151 26.7917 121.366 27.1174 121.662 27.4205C121.957 27.7235 122.348 27.9659 122.832 28.1477C123.325 28.3371 123.923 28.4318 124.628 28.4318C125.681 28.4318 126.548 28.1742 127.23 27.6591C127.92 27.1515 128.264 26.2992 128.264 25.1023V21.9091H128.06C127.848 22.3939 127.529 22.8523 127.105 23.2841C126.681 23.7159 126.135 24.0682 125.469 24.3409C124.802 24.6136 124.007 24.75 123.082 24.75C121.772 24.75 120.579 24.447 119.503 23.8409C118.435 23.2273 117.582 22.2917 116.946 21.0341C116.317 19.7689 116.003 18.1705 116.003 16.2386C116.003 14.2614 116.325 12.6098 116.969 11.2841C117.613 9.95833 118.469 8.96591 119.537 8.30682C120.613 7.64773 121.791 7.31818 123.071 7.31818C124.048 7.31818 124.866 7.48485 125.526 7.81818C126.185 8.14394 126.715 8.55303 127.116 9.04545C127.526 9.5303 127.84 10.0076 128.06 10.4773H128.241V7.54545H133.048V25.1705C133.048 26.6553 132.685 27.8977 131.957 28.8977C131.23 29.8977 130.223 30.6477 128.935 31.1477C127.654 31.6553 126.181 31.9091 124.514 31.9091ZM124.616 21.1136C125.397 21.1136 126.056 20.9205 126.594 20.5341C127.139 20.1402 127.556 19.5795 127.844 18.8523C128.139 18.1174 128.287 17.2386 128.287 16.2159C128.287 15.1932 128.143 14.3068 127.855 13.5568C127.567 12.7992 127.151 12.2121 126.605 11.7955C126.06 11.3788 125.397 11.1705 124.616 11.1705C123.821 11.1705 123.151 11.3864 122.605 11.8182C122.06 12.2424 121.647 12.8333 121.366 13.5909C121.086 14.3485 120.946 15.2235 120.946 16.2159C120.946 17.2235 121.086 18.0947 121.366 18.8295C121.654 19.5568 122.067 20.1212 122.605 20.5227C123.151 20.9167 123.821 21.1136 124.616 21.1136ZM136.991 25V1.72727H141.912V11.9886H142.219L150.594 1.72727H156.491L147.855 12.1477L156.594 25H150.707L144.332 15.4318L141.912 18.3864V25H136.991ZM169.062 17.5682V7.54545H173.903V25H169.256V21.8295H169.074C168.68 22.8523 168.025 23.6742 167.108 24.2955C166.199 24.9167 165.089 25.2273 163.778 25.2273C162.612 25.2273 161.585 24.9621 160.699 24.4318C159.813 23.9015 159.119 23.1477 158.619 22.1705C158.127 21.1932 157.877 20.0227 157.869 18.6591V7.54545H162.71V17.7955C162.718 18.8258 162.994 19.6402 163.54 20.2386C164.085 20.8371 164.816 21.1364 165.733 21.1364C166.316 21.1364 166.862 21.0038 167.369 20.7386C167.877 20.4659 168.286 20.0644 168.597 19.5341C168.915 19.0038 169.07 18.3485 169.062 17.5682Z" fill="#F2A61A"/>
</svg>
